<?xml version="1.0" encoding="UTF-8" standalone="no"?>
<!DOCTYPE svg PUBLIC "-//W3C//DTD SVG 1.1//EN" "http://www.w3.org/Graphics/SVG/1.1/DTD/svg11.dtd">
<svg width="100%" height="100%" viewBox="0 0 2481 3508" version="1.1" xmlns="http://www.w3.org/2000/svg" xmlns:xlink="http://www.w3.org/1999/xlink" xml:space="preserve" xmlns:serif="http://www.serif.com/" style="fill-rule:evenodd;clip-rule:evenodd;stroke-linejoin:round;stroke-miterlimit:2;">
    <g transform="matrix(0.956565,0,0,1.1154,-1.49126,-2025.85)">
        <rect x="449" y="2359" width="1562" height="582" style="fill:rgb(51,51,51);"/>
    </g>
    <g transform="matrix(7.66732,0,0,7.66732,-3015.41,-3136.91)">
        <g transform="matrix(50,0,0,50,471.84,535.494)">
            <path d="M0.413,-0.475L0.465,-0.475L0.408,0L0.302,0L0.251,-0.207L0.247,-0.207L0.195,0L0.09,0L0.035,-0.475L0.087,-0.475L0.139,-0.048L0.157,-0.048L0.224,-0.289L0.276,-0.289L0.343,-0.048L0.361,-0.048L0.413,-0.475Z" style="fill:rgb(230,230,230);fill-rule:nonzero;"/>
        </g>
        <g transform="matrix(50,0,0,50,496.84,535.494)">
            <path d="M0.131,-0.388L0.131,0L0.078,0L0.078,-0.664L0.131,-0.664L0.131,-0.439C0.194,-0.467 0.245,-0.481 0.286,-0.481C0.381,-0.481 0.429,-0.426 0.429,-0.317L0.429,0L0.376,0L0.376,-0.317C0.376,-0.351 0.369,-0.378 0.354,-0.399C0.339,-0.419 0.314,-0.429 0.278,-0.429C0.242,-0.429 0.193,-0.415 0.131,-0.388Z" style="fill:rgb(230,230,230);fill-rule:nonzero;"/>
        </g>
        <g transform="matrix(50,0,0,50,521.84,535.494)">
            <path d="M0.083,0L0.083,-0.05L0.229,-0.05L0.229,-0.425L0.083,-0.425L0.083,-0.475L0.282,-0.475L0.282,-0.05L0.428,-0.05L0.428,0L0.083,0ZM0.208,-0.616C0.208,-0.629 0.212,-0.64 0.22,-0.647C0.227,-0.654 0.238,-0.658 0.251,-0.658C0.278,-0.658 0.292,-0.643 0.292,-0.614C0.292,-0.585 0.278,-0.57 0.251,-0.571C0.222,-0.571 0.208,-0.586 0.208,-0.616Z" style="fill:rgb(230,230,230);fill-rule:nonzero;"/>
        </g>
        <g transform="matrix(50,0,0,50,546.84,535.494)">
            <path d="M0.078,-0.023L0.091,-0.075C0.157,-0.053 0.208,-0.042 0.244,-0.042C0.28,-0.042 0.308,-0.05 0.328,-0.066C0.347,-0.081 0.357,-0.102 0.357,-0.128C0.357,-0.154 0.349,-0.173 0.334,-0.186C0.318,-0.198 0.285,-0.21 0.236,-0.221C0.187,-0.232 0.15,-0.249 0.125,-0.27C0.1,-0.29 0.088,-0.32 0.088,-0.36C0.088,-0.4 0.103,-0.431 0.134,-0.452C0.164,-0.472 0.203,-0.483 0.251,-0.483C0.299,-0.483 0.351,-0.472 0.407,-0.451L0.393,-0.404C0.336,-0.423 0.291,-0.432 0.256,-0.432C0.221,-0.432 0.194,-0.426 0.174,-0.414C0.154,-0.401 0.144,-0.383 0.144,-0.36C0.144,-0.337 0.153,-0.32 0.171,-0.307C0.188,-0.294 0.222,-0.282 0.273,-0.269C0.324,-0.256 0.36,-0.24 0.381,-0.221C0.402,-0.201 0.413,-0.17 0.413,-0.128C0.413,-0.086 0.399,-0.053 0.37,-0.028C0.342,-0.003 0.302,0.009 0.25,0.009C0.198,0.009 0.141,-0.002 0.078,-0.023Z" style="fill:rgb(230,230,230);fill-rule:nonzero;"/>
        </g>
        <g transform="matrix(50,0,0,50,571.84,535.494)">
            <path d="M0.077,0.192L0.077,-0.389L0.068,-0.476L0.118,-0.482L0.127,-0.428C0.176,-0.463 0.222,-0.481 0.266,-0.481C0.325,-0.481 0.371,-0.459 0.404,-0.416C0.437,-0.373 0.453,-0.313 0.453,-0.237C0.453,-0.161 0.435,-0.101 0.399,-0.057C0.363,-0.013 0.313,0.009 0.249,0.009C0.212,0.009 0.172,0 0.13,-0.018L0.13,0.192L0.077,0.192ZM0.396,-0.235C0.396,-0.295 0.385,-0.342 0.362,-0.377C0.339,-0.411 0.307,-0.429 0.265,-0.429C0.222,-0.429 0.177,-0.41 0.13,-0.372L0.13,-0.072C0.144,-0.065 0.163,-0.059 0.188,-0.053C0.212,-0.046 0.232,-0.043 0.247,-0.043C0.294,-0.043 0.331,-0.06 0.357,-0.095C0.383,-0.13 0.396,-0.177 0.396,-0.235Z" style="fill:rgb(230,230,230);fill-rule:nonzero;"/>
        </g>
        <g transform="matrix(50,0,0,50,596.84,535.494)">
            <path d="M0.081,0L0.081,-0.05L0.195,-0.05L0.195,-0.425L0.081,-0.425L0.081,-0.475L0.248,-0.475L0.25,-0.417C0.271,-0.43 0.301,-0.444 0.34,-0.457C0.379,-0.47 0.413,-0.478 0.442,-0.481L0.453,-0.481L0.453,-0.422L0.442,-0.422C0.415,-0.42 0.381,-0.413 0.341,-0.402C0.3,-0.391 0.27,-0.379 0.25,-0.367L0.25,-0.05L0.41,-0.05L0.41,0L0.081,0Z" style="fill:rgb(230,230,230);fill-rule:nonzero;"/>
        </g>
    </g>
    <g transform="matrix(6.94248,0,0,1.83675,-2659.99,148.178)">
        <g transform="matrix(50,0,0,50,471.84,535.494)">
            <path d="M0,0L0.195,-0.635L0.244,-0.635L0.049,0L0,0ZM0.098,0L0.293,-0.635L0.537,-0.635L0.342,0L0.098,0ZM0.391,0L0.586,-0.635L0.831,-0.635L0.635,0L0.391,0Z" style="fill:rgb(230,230,230);fill-opacity:0.9;fill-rule:nonzero;"/>
        </g>
        <g transform="matrix(50,0,0,50,508.461,535.494)">
            <path d="M0,0L0.195,-0.635L0.244,-0.635L0.049,0L0,0ZM0.098,0L0.293,-0.634L0.342,-0.634L0.146,0L0.098,0ZM0.195,0L0.391,-0.634L0.44,-0.634L0.244,0L0.195,0ZM0.293,0L0.488,-0.634L0.537,-0.634L0.342,0L0.293,0Z" style="fill:rgb(230,230,230);fill-opacity:0.9;fill-rule:nonzero;"/>
        </g>
        <g transform="matrix(50,0,0,50,530.434,535.494)">
            <path d="M0,0L0.195,-0.635L0.244,-0.635L0.049,0L0,0ZM0.098,0L0.293,-0.635L0.342,-0.635L0.146,0L0.098,0Z" style="fill:rgb(230,230,230);fill-opacity:0.9;fill-rule:nonzero;"/>
        </g>
        <g transform="matrix(50,0,0,50,542.641,535.494)">
            <path d="M0,0L0.195,-0.635L0.244,-0.635L0.049,0L0,0ZM0.098,0L0.293,-0.634L0.342,-0.634L0.146,0L0.098,0ZM0.195,0L0.391,-0.634L0.44,-0.634L0.244,0L0.195,0Z" style="fill:rgb(230,230,230);fill-opacity:0.9;fill-rule:nonzero;"/>
        </g>
        <g transform="matrix(50,0,0,50,559.731,535.494)">
            <path d="M0,0L0.195,-0.635L0.244,-0.635L0.049,0L0,0ZM0.098,0L0.293,-0.635L0.537,-0.635L0.342,0L0.098,0ZM0.391,0L0.586,-0.635L0.831,-0.635L0.635,0L0.391,0ZM0.684,0L0.879,-0.635L0.928,-0.635L0.732,0L0.684,0Z" style="fill:rgb(230,230,230);fill-opacity:0.9;fill-rule:nonzero;"/>
        </g>
        <g transform="matrix(50,0,0,50,601.234,535.494)">
            <path d="M0,0L0.195,-0.635L0.244,-0.635L0.049,0L0,0ZM0.098,0L0.293,-0.635L0.537,-0.635L0.342,0L0.098,0ZM0.391,0L0.586,-0.635L0.635,-0.635L0.439,0L0.391,0Z" style="fill:rgb(230,230,230);fill-opacity:0.9;fill-rule:nonzero;"/>
        </g>
    </g>
    <g transform="matrix(7.66732,0,0,7.66732,-3015.41,-2351.87)">
        <g transform="matrix(50,0,0,50,471.84,535.494)">
            <path d="M0.413,-0.475L0.465,-0.475L0.408,0L0.302,0L0.251,-0.207L0.247,-0.207L0.195,0L0.09,0L0.035,-0.475L0.087,-0.475L0.139,-0.048L0.157,-0.048L0.224,-0.289L0.276,-0.289L0.343,-0.048L0.361,-0.048L0.413,-0.475Z" style="fill:rgb(51,51,51);fill-rule:nonzero;"/>
        </g>
        <g transform="matrix(50,0,0,50,496.84,535.494)">
            <path d="M0.131,-0.388L0.131,0L0.078,0L0.078,-0.664L0.131,-0.664L0.131,-0.439C0.194,-0.467 0.245,-0.481 0.286,-0.481C0.381,-0.481 0.429,-0.426 0.429,-0.317L0.429,0L0.376,0L0.376,-0.317C0.376,-0.351 0.369,-0.378 0.354,-0.399C0.339,-0.419 0.314,-0.429 0.278,-0.429C0.242,-0.429 0.193,-0.415 0.131,-0.388Z" style="fill:rgb(51,51,51);fill-rule:nonzero;"/>
        </g>
        <g transform="matrix(50,0,0,50,521.84,535.494)">
            <path d="M0.083,0L0.083,-0.05L0.229,-0.05L0.229,-0.425L0.083,-0.425L0.083,-0.475L0.282,-0.475L0.282,-0.05L0.428,-0.05L0.428,0L0.083,0ZM0.208,-0.616C0.208,-0.629 0.212,-0.64 0.22,-0.647C0.227,-0.654 0.238,-0.658 0.251,-0.658C0.278,-0.658 0.292,-0.643 0.292,-0.614C0.292,-0.585 0.278,-0.57 0.251,-0.571C0.222,-0.571 0.208,-0.586 0.208,-0.616Z" style="fill:rgb(51,51,51);fill-rule:nonzero;"/>
        </g>
        <g transform="matrix(50,0,0,50,546.84,535.494)">
            <path d="M0.078,-0.023L0.091,-0.075C0.157,-0.053 0.208,-0.042 0.244,-0.042C0.28,-0.042 0.308,-0.05 0.328,-0.066C0.347,-0.081 0.357,-0.102 0.357,-0.128C0.357,-0.154 0.349,-0.173 0.334,-0.186C0.318,-0.198 0.285,-0.21 0.236,-0.221C0.187,-0.232 0.15,-0.249 0.125,-0.27C0.1,-0.29 0.088,-0.32 0.088,-0.36C0.088,-0.4 0.103,-0.431 0.134,-0.452C0.164,-0.472 0.203,-0.483 0.251,-0.483C0.299,-0.483 0.351,-0.472 0.407,-0.451L0.393,-0.404C0.336,-0.423 0.291,-0.432 0.256,-0.432C0.221,-0.432 0.194,-0.426 0.174,-0.414C0.154,-0.401 0.144,-0.383 0.144,-0.36C0.144,-0.337 0.153,-0.32 0.171,-0.307C0.188,-0.294 0.222,-0.282 0.273,-0.269C0.324,-0.256 0.36,-0.24 0.381,-0.221C0.402,-0.201 0.413,-0.17 0.413,-0.128C0.413,-0.086 0.399,-0.053 0.37,-0.028C0.342,-0.003 0.302,0.009 0.25,0.009C0.198,0.009 0.141,-0.002 0.078,-0.023Z" style="fill:rgb(51,51,51);fill-rule:nonzero;"/>
        </g>
        <g transform="matrix(50,0,0,50,571.84,535.494)">
            <path d="M0.077,0.192L0.077,-0.389L0.068,-0.476L0.118,-0.482L0.127,-0.428C0.176,-0.463 0.222,-0.481 0.266,-0.481C0.325,-0.481 0.371,-0.459 0.404,-0.416C0.437,-0.373 0.453,-0.313 0.453,-0.237C0.453,-0.161 0.435,-0.101 0.399,-0.057C0.363,-0.013 0.313,0.009 0.249,0.009C0.212,0.009 0.172,0 0.13,-0.018L0.13,0.192L0.077,0.192ZM0.396,-0.235C0.396,-0.295 0.385,-0.342 0.362,-0.377C0.339,-0.411 0.307,-0.429 0.265,-0.429C0.222,-0.429 0.177,-0.41 0.13,-0.372L0.13,-0.072C0.144,-0.065 0.163,-0.059 0.188,-0.053C0.212,-0.046 0.232,-0.043 0.247,-0.043C0.294,-0.043 0.331,-0.06 0.357,-0.095C0.383,-0.13 0.396,-0.177 0.396,-0.235Z" style="fill:rgb(51,51,51);fill-rule:nonzero;"/>
        </g>
        <g transform="matrix(50,0,0,50,596.84,535.494)">
            <path d="M0.081,0L0.081,-0.05L0.195,-0.05L0.195,-0.425L0.081,-0.425L0.081,-0.475L0.248,-0.475L0.25,-0.417C0.271,-0.43 0.301,-0.444 0.34,-0.457C0.379,-0.47 0.413,-0.478 0.442,-0.481L0.453,-0.481L0.453,-0.422L0.442,-0.422C0.415,-0.42 0.381,-0.413 0.341,-0.402C0.3,-0.391 0.27,-0.379 0.25,-0.367L0.25,-0.05L0.41,-0.05L0.41,0L0.081,0Z" style="fill:rgb(51,51,51);fill-rule:nonzero;"/>
        </g>
    </g>
    <g transform="matrix(6.94248,0,0,1.83675,-2659.99,933.221)">
        <g transform="matrix(50,0,0,50,471.84,535.494)">
            <path d="M0,0L0.195,-0.635L0.244,-0.635L0.049,0L0,0ZM0.098,0L0.293,-0.635L0.537,-0.635L0.342,0L0.098,0ZM0.391,0L0.586,-0.635L0.831,-0.635L0.635,0L0.391,0Z" style="fill:rgb(51,51,51);fill-opacity:0.9;fill-rule:nonzero;"/>
        </g>
        <g transform="matrix(50,0,0,50,508.461,535.494)">
            <path d="M0,0L0.195,-0.635L0.244,-0.635L0.049,0L0,0ZM0.098,0L0.293,-0.634L0.342,-0.634L0.146,0L0.098,0ZM0.195,0L0.391,-0.634L0.44,-0.634L0.244,0L0.195,0ZM0.293,0L0.488,-0.634L0.537,-0.634L0.342,0L0.293,0Z" style="fill:rgb(51,51,51);fill-opacity:0.9;fill-rule:nonzero;"/>
        </g>
        <g transform="matrix(50,0,0,50,530.434,535.494)">
            <path d="M0,0L0.195,-0.635L0.244,-0.635L0.049,0L0,0ZM0.098,0L0.293,-0.635L0.342,-0.635L0.146,0L0.098,0Z" style="fill:rgb(51,51,51);fill-opacity:0.9;fill-rule:nonzero;"/>
        </g>
        <g transform="matrix(50,0,0,50,542.641,535.494)">
            <path d="M0,0L0.195,-0.635L0.244,-0.635L0.049,0L0,0ZM0.098,0L0.293,-0.634L0.342,-0.634L0.146,0L0.098,0ZM0.195,0L0.391,-0.634L0.44,-0.634L0.244,0L0.195,0Z" style="fill:rgb(51,51,51);fill-opacity:0.9;fill-rule:nonzero;"/>
        </g>
        <g transform="matrix(50,0,0,50,559.731,535.494)">
            <path d="M0,0L0.195,-0.635L0.244,-0.635L0.049,0L0,0ZM0.098,0L0.293,-0.635L0.537,-0.635L0.342,0L0.098,0ZM0.391,0L0.586,-0.635L0.831,-0.635L0.635,0L0.391,0ZM0.684,0L0.879,-0.635L0.928,-0.635L0.732,0L0.684,0Z" style="fill:rgb(51,51,51);fill-opacity:0.9;fill-rule:nonzero;"/>
        </g>
        <g transform="matrix(50,0,0,50,601.234,535.494)">
            <path d="M0,0L0.195,-0.635L0.244,-0.635L0.049,0L0,0ZM0.098,0L0.293,-0.635L0.537,-0.635L0.342,0L0.098,0ZM0.391,0L0.586,-0.635L0.635,-0.635L0.439,0L0.391,0Z" style="fill:rgb(51,51,51);fill-opacity:0.9;fill-rule:nonzero;"/>
        </g>
    </g>
</svg>
